<svg width="36" height="36" viewBox="0 0 36 36" fill="none" xmlns="http://www.w3.org/2000/svg">
<path d="M10.451 25.7299C11.7241 28.5109 13.7335 30.8617 17.8778 30.8617C22.0222 30.8617 24.0317 28.5108 25.3047 25.7298C23.5593 24.5683 20.7992 23.8646 17.8778 23.8646C14.9565 23.8646 12.1966 24.5684 10.451 25.7299ZM15.8335 27.2281C15.2799 27.2281 14.8293 26.7737 14.8293 26.2133C14.8293 25.6528 15.2799 25.1988 15.8335 25.1988C16.3878 25.1988 16.8383 25.6527 16.8383 26.2133C16.8383 26.7737 16.3879 27.2281 15.8335 27.2281ZM19.9146 25.191C20.473 25.191 20.9264 25.6487 20.9264 26.2134C20.9264 26.7781 20.4729 27.2358 19.9146 27.2358C19.3556 27.2358 18.9022 26.7781 18.9022 26.2134C18.9022 25.6487 19.3557 25.191 19.9146 25.191Z" fill="#FFA898"/>
<path d="M33.3426 8.50905L32.9644 7.66061L32.0787 7.94066C29.7245 8.68493 26.9829 9.54296 25.7437 9.9303C25.3318 9.60209 24.871 9.31294 24.3626 9.06504C24.0942 8.93414 23.819 8.8177 23.5399 8.71403C23.9117 7.8274 24.2708 6.46397 24.2708 4.50006H22.1901C22.1901 6.06772 21.9231 7.11279 21.6993 7.71351C21.6319 7.89431 21.5645 8.04546 21.5023 8.17062C20.1787 7.93319 18.8903 7.89213 17.878 7.89213C16.8649 7.89213 15.5749 7.93325 14.2501 8.17125C13.9681 7.60118 13.566 6.4469 13.566 4.5H11.4852C11.4852 6.4639 11.8443 7.82734 12.2162 8.71396C11.937 8.81757 11.662 8.93402 11.3934 9.06498C10.8851 9.31282 10.4242 9.60196 10.0123 9.93024C8.77325 9.54296 6.03168 8.68499 3.67739 7.9406L2.79169 7.66055L2.41345 8.50899C1.95054 9.54764 1.58383 11.0741 2.4656 12.4482C3.56786 14.1658 6.05691 14.7112 7.55654 14.8842C7.54009 15.1153 7.53081 15.3508 7.53081 15.5917C7.53081 17.9401 8.07259 19.3781 8.75829 21.1987C8.98564 21.8023 9.22077 22.4264 9.46412 23.1555C9.53147 23.3573 9.6005 23.5598 9.67153 23.7624C11.7605 22.509 14.7147 21.7838 17.8782 21.7838C21.0416 21.7838 23.9958 22.5091 26.0848 23.7624C26.1557 23.5598 26.2248 23.3572 26.2921 23.1555C26.5354 22.4263 26.7705 21.8023 26.9979 21.1987C27.6837 19.3781 28.2254 17.9402 28.2254 15.5917C28.2254 15.3507 28.2161 15.1153 28.1996 14.8842C29.6993 14.7112 32.1884 14.1658 33.2906 12.4482C34.1722 11.0741 33.8055 9.5477 33.3426 8.50905ZM14.6412 17.1572C13.9376 17.1572 13.3649 16.5797 13.3649 15.8674C13.3649 15.1549 13.9375 14.578 14.6412 14.578C15.3457 14.578 15.9183 15.1549 15.9183 15.8674C15.9184 16.5797 15.3459 17.1572 14.6412 17.1572ZM21.1051 17.1669C20.3946 17.1669 19.8183 16.5851 19.8183 15.8674C19.8183 15.1497 20.3946 14.568 21.1051 14.568C21.8147 14.568 22.391 15.1498 22.391 15.8674C22.391 16.5851 21.8147 17.1669 21.1051 17.1669Z" fill="#FF6649"/>
</svg>
